<svg xmlns="http://www.w3.org/2000/svg"
 version="1.1" xmlns:xlink="http://www.w3.org/1999/xlink" 
 xmlns:svgjs="http://svgjs.dev/svgjs" width="2000" 
 height="2242" viewBox="0 0 2000 2242"><g 
 transform="matrix(1,0,0,1,-3.1151183800621993,0)">
 <svg viewBox="0 0 321 360" data-background-color="#c8c8c8"
  preserveAspectRatio="xMidYMid meet" height="2242" width="2000" 
  xmlns="http://www.w3.org/2000/svg" xmlns:xlink="http://www.w3.org/1999/xlink">
  <g id="tight-bounds" transform="matrix(1,0,0,1,0.5000234999999975,0)">
  <svg viewBox="0 0 320 360" height="360" width="320"><g><svg></svg></g><g><svg
   viewBox="0 0 320 360" height="360" width="320"><g><path transform="translate(-74.99272,-51.79039) scale(4.65793,4.65793)"
    d="M20.6 59.9l0.8 1-0.4-1.3c-0.1-0.6-0.8 0.1-0.4 0.3M21.5 59.3c0.3 0.5 0.6 1
     0.6 1.5 0 0.7 0.6 1 1.1 1.2-0.7-0.8-1.1-3-1.7-2.7M59.9 16.9c1.7 0 3.3-0.2 5.1 0.2 
     4.4 1.1 8.1 3.3 10.6 6.4l7 11.2c0.3 2.8 0.9 5.9 0.8 9.3 0.7 0 0.6-1 1.4-1.2-0.8 2-1.2
      4.5-1.4 7.4-0.5-1.6 0-4 0.1-5.3-0.7 1.1-1.1 0.3-1.1-0.2 0.1-0.8-0.3-0.7-0.6-1-1.1-1-1.8-2.1-2.6-3.8 0.5-1.3
       0.6-3.2-1-4.2-0.5-0.3-1.1-0.8-1.4-1.6-0.4-1.1-1.1-2.4-0.9-4.1 0.1-0.5-1.5 1.1-2.4 0.4-3.9-2.7-7.8-5.8-12.5-8.4-2.5 
       0-4.3-0.9-5.2-2-0.8-1-0.2-2.3 1-2.4 0.7 0 1.5-0.2 2.1 0.2 0.1-0.4 0.5-0.9 1-0.9M50 14.6l0.2 0.1c1 0.2 1.5 1.6 2.6 1.1 0 0.7 0.1 1.4-0.1 1.9-0.3 0.8-1.2 0.8-1.9
        0.8-6.7-0.4-10.6 2.4-14.7 4.8-1.1 0.7-2.3 1.2-3.2 2.1-4.3 4-9 7.7-10.1 15.1l-0.9 8.2c-0.1 0.9-1.1 1.8-0.9 2.9l0.7 4.9c-0.7-0.7-1.1 0.2-0.9 0.6 0.1 0.3 0.5 1.3
         1.1 0.4 0.8 1.5 1.6 4.4 2.7 5.7 3.4 4 7.8 7.6 11.4 11.2 0.9-0.2 1.6-0.2 1.8-0.8 0.3 0.6-0.3 1.2-0.8 1.3 1.6 1 3.4 1.9 5.8 2.1 3.1 0.2 6 0.7 8.7 1.4 1.4-0.4 2.8-0.6 
         4.3-0.7 0.5 0 0.8-0.8 1.4-1l0.1-1c0.6 0.9 0.5-0.3 0.1-0.9 0.7 0.6 0.9 1.1 1.2 1.5 0-0.3 0.8-1.4 0.8-0.1l0.2-1.3c0.3-0.2 0.4 1.1 0.7 0.2 0.3-0.9 0.9-0.2 1.5-0.5-0.2
          0.4-0.1 1.2 0.6 0.7l0.8-0.7c0.5 1.2 1.3 0.7 1.7 0.5 4.4-2.8 8.8-6.1 13-9.4l-0.1 1.3 0.5-1.6c0.5 0.5 0.9 0.1 1.1-0.2 0.6-1 1.4-2 2.7-2.9-1.6 4.3-3.5 7.7-5.9 10.5l-1 1.2c0 0.7-0.2 1.6-1 1.7-0.4 0.1-1.2-0.2-1.8 0.4-0.3 0.4 0.7 1.2-0.1 0.6-0.7-0.5-1.4 0-2.2 0.2-0.6 0.2 0.4 0.8 0.6 1.2 0.2 0.4 0.4 0.8 0.3 1.3l-1.1-1.2c-1.3 0.7-2.1 2-3.2 3-0.5 0.4-0.3 1.1-0.3 1.7-0.7 0-1.5-0.2-1.9 0.2-0.3 0.4-0.2 1-0.2 1.6-1-0.1-1.1-1.6-2-1.3-0.9 0.2-1.9 0.3-2.7 0.8 0.6 1.2-1 0.5-0.8 0.7-1.5-0.9-2.8-1.6-4.4-1-3.4-1.1-7.6-0.6-10.7-0.2 0-0.5 0.1-1-0.1-1.1-0.2 0.5-0.8 0.3-0.7 0.3-1.9-1.3-3.8-2.1-5.8-3.2-1.8 0.2-3.5-0.7-4-1.2-1.4-1.3-3-0.6-4.3-0.9-2.8-0.7-3.8-3.6-4.1-5.6-0.2-1-1-1.4-1.3-1.3-1.3-4.2-3.3-8-4.9-11.9-0.4-1-0.3-2-0.3-3.1 0.5 0.2 1 0.1 0.9-0.6-0.5-3.3-1.7-5.8-3-8.2 0.7-3.4 0.8-7.4 2.4-10.4 1.4-2.7 4-4.1 5.8-6.4 0.6-0.8 0.6-1.9 1.2-2.6 2-2 4-4.1 6.2-5.9 1-0.8 2.2 0 3.7-0.3 0.5-1.8 2.5-3.4 4.4-2.9 0.8 0.2 2.4-1.9 2.9-2.1 0.8-0.3 0.4 0.8 0.4 1.5 1.9-1.5 4.5-2.3 6.9-3.2" fill="#6b7280" fill-rule="nonzero" stroke="none" stroke-width="1" stroke-linecap="butt" stroke-linejoin="miter" stroke-miterlimit="10" stroke-dasharray="" stroke-dashoffset="0" font-family="none" font-weight="none" font-size="none" text-anchor="none" style="mix-blend-mode: normal" data-fill-palette-color="tertiary"></path></g><g transform="matrix(1,0,0,1,107.55347024184537,90)"><svg viewBox="0 0 104.89305951630925 180" height="180" width="104.89305951630925"><g><svg viewBox="0 0 104.89305951630925 180" height="180" width="104.89305951630925"><g><svg viewBox="0 0 192 329.47842459134733" height="180" width="104.89305951630925"><g transform="matrix(1,0,0,1,0,150.26171440857973)"><svg viewBox="0 0 192 179.2167101827676" height="179.2167101827676" width="192"><g id="textblocktransform"><svg viewBox="0 0 192 179.2167101827676" height="179.2167101827676" width="192" id="textblock"><g><svg viewBox="0 0 192 179.2167101827676" height="179.2167101827676" width="192"><g transform="matrix(1,0,0,1,0,0)"><svg width="192" viewBox="1.55 -32.5 38.300000000000004 35.75" height="179.2167101827676" data-palette-color="#6b7280"><path d="M27.05-13.9L27.05-13.9Q24.05-13.9 22-15.28 19.95-16.65 19.95-18.75L19.95-18.75Q19.95-21.4 23.4-24.05L23.4-24.05Q24-24.5 24.3-24.5 24.6-24.5 24.6-24.3L24.6-24.3Q24.6-23.8 23.8-23.5L23.8-23.5Q21-21.25 21-18.95L21-18.95Q21-17.3 22.5-16.18 24-15.05 26.25-15.05L26.25-15.05Q31.15-15.05 35.5-19.75L35.5-19.75Q37.75-22.2 37.75-25.4 37.75-28.6 35.35-30.15L35.35-30.15Q33.35-31.55 29.95-31.55L29.95-31.55Q25.05-31.55 20.1-29.1L20.1-29.1Q14-26.15 9.08-19.93 4.15-13.7 4.15-7.95L4.15-7.95Q4.15-3.4 7.25-0.93 10.35 1.55 14.95 1.55L14.95 1.55Q20.2 1.55 25.25-1L25.25-1Q29.1-3 31.9-6.1L31.9-6.1Q32.7-7 33.15-7L33.15-7Q33.45-7 33.45-6.48 33.45-5.95 32.9-5.4L32.9-5.4Q30.25-2.6 25.25 0L25.25 0Q19.1 3.25 12.88 3.25 6.65 3.25 3.6-0.85L3.6-0.85Q1.55-3.55 1.55-7.3L1.55-7.3Q1.55-8.95 1.95-10.85L1.95-10.85Q3.3-17.25 9.05-23.3L9.05-23.3Q13.2-27.65 18.9-30.08 24.6-32.5 29.7-32.5L29.7-32.5Q32.4-32.5 34.4-31.85L34.4-31.85Q39.85-30.15 39.85-25L39.85-25Q39.85-21.85 38-19.55L38-19.55Q33.4-13.9 27.05-13.9Z" opacity="1" transform="matrix(1,0,0,1,0,0)" fill="#6b7280" class="wordmark-text-0" data-fill-palette-color="primary" id="text-0"></path></svg></g></svg></g></svg></g></svg></g><g transform="matrix(1,0,0,1,36.672,0)"><svg viewBox="0 0 118.656 124.10969519186956" height="124.10969519186956" width="118.656"><g><svg xmlns="http://www.w3.org/2000/svg" xmlns:xlink="http://www.w3.org/1999/xlink" version="1.1" x="0" y="0" viewBox="4.9601086795139615 2.71 90.84989132048604 95.02555555555554" enable-background="new 0 0 100 100" xml:space="preserve" height="124.10969519186956" width="118.656" class="icon-icon-0" data-fill-palette-color="accent" id="icon-0"><path d="M9.99 92.62C9.79 93.59 9.57 94.39 9.29 95.13 9.04 95.76 8.64 96.67 7.98 97.24 7.74 97.44 7.43 97.61 7.09 97.69 7.05 97.69 7 97.69 6.97 97.71 6.68 97.76 6.37 97.74 6.1 97.62S5.58 97.25 5.38 96.92C5.06 96.4 4.92 95.78 4.97 95.19 5.05 94.44 5.38 93.82 5.96 93.38 6.66 92.83 7.75 92.53 8.9 92.53 9.24 92.53 9.58 92.56 9.93 92.61z" fill="#97978d" data-fill-palette-color="accent"></path><path d="M91.38 38.92H36.51C34.07 38.92 32.09 40.9 32.09 43.34V60.59A4.43 4.43 0 0 0 36.51 65.02H91.38C93.82 65.02 95.81 63.03 95.81 60.59V43.34A4.43 4.43 0 0 0 91.38 38.92M71.08 46.68C69.52 45.87 67.75 45.46 65.75 45.46 63.56 45.46 61.79 46.06 60.45 47.27 59.1 48.48 58.43 50.12 58.43 52.19 58.43 54.17 59.07 55.75 60.33 56.93 61.6 58.1 63.31 58.69 65.46 58.69 67.51 58.69 69.38 58.25 71.08 57.38V61.59C69.38 62.32 67.16 62.68 64.42 62.68 60.84 62.68 58.03 61.76 55.98 59.91S52.9 55.59 52.9 52.52C52.9 49.24 54.05 46.58 56.36 44.54 58.66 42.5 61.65 41.48 65.33 41.48 67.6 41.48 69.52 41.73 71.08 42.24z" fill="#97978d" data-fill-palette-color="accent"></path><path d="M12.31 8.75C12.31 8.88 12.31 9.02 12.3 9.16 12.24 10.25 12 11.28 11.56 12.33 10.99 13.72 10.67 14.17 10.53 14.32 10.16 14.3 10 14.15 9.9 14.01 9.28 13.12 9.74 10.57 10.33 8.77z" fill="#97978d" data-fill-palette-color="accent"></path><path d="M80.7 86.72C80.57 89.38 80.33 92.21 79.45 94.83 79.18 95.61 78.79 96.6 78.07 97.21 77.8 97.44 77.44 97.62 77.07 97.7H9.6C9.6 97.69 9.61 97.69 9.62 97.68 10.14 97 10.47 96.24 10.69 95.66 11.12 94.55 11.42 93.32 11.69 91.66 11.93 90.18 12.08 88.58 12.19 86.65 12.28 84.91 12.32 83.04 12.3 80.93 12.28 79.02 12.22 77.03 12.11 74.85 12.02 72.9 11.89 70.9 11.72 68.75 11.57 66.82 11.4 64.89 11.21 62.97 11.04 61.26 10.85 59.56 10.65 57.86 10.5 56.5 10.33 55.14 10.15 53.78 10.04 52.88 9.92 51.98 9.79 51.07L9.76 50.85C9.72 50.6 9.69 50.35 9.65 50.09 4.06 13.94 7.66 5.38 9.47 3.38 9.83 2.98 10.13 2.82 10.33 2.75A9.6 9.6 0 0 1 12.22 7.25L9.27 7.27 9.09 7.76C8.9 8.28 7.27 12.87 8.68 14.88 8.98 15.29 9.53 15.79 10.52 15.82 10.56 15.83 10.6 15.83 10.64 15.83H75.09C75.07 17.74 75.14 19.61 75.21 21.35L75.27 22.73C75.45 27.63 75.89 32.54 76.45 37.42H36.51C33.25 37.42 30.59 40.07 30.59 43.34V60.59C30.59 63.86 33.25 66.52 36.51 66.52H80.05C80.7 73.22 81.04 79.98 80.7 86.72" fill="#97978d" data-fill-palette-color="accent"></path><path d="M81.94 12.68C81.46 13.68 80.41 14.33 79.26 14.33H12.29C12.5 13.93 12.73 13.43 12.98 12.83 13.45 11.71 13.72 10.5 13.8 9.25 13.93 6.95 13.34 4.68 12.13 2.71H79.8C80 2.71 80.19 2.74 80.37 2.78 80.98 2.94 81.52 3.34 81.83 3.91 82.88 5.83 83.76 8.91 81.94 12.68" fill="#97978d" data-fill-palette-color="accent"></path></svg></g></svg></g><g></g></svg></g></svg></g></svg></g></svg></g><defs></defs></svg><rect
           width="320" height="360" fill="none" stroke="none" visibility="hidden"></rect></g></svg></g></svg>